<svg xmlns="http://www.w3.org/2000/svg" width="24" height="24"><path d="M21.8 12.5c-1-1-2.3-1.5-3.6-1.5-.7 0-1.3.1-1.9.4.4-.9.6-2 .6-3C16.9 4.1 13.4.5 9 .5S1.1 4 1.1 8.4c0 1.4.4 2.8 1.1 4L.8 16c-.1.2 0 .4.1.5.1.1.2.1.3.1h.2L5 15.1c1.2.7 2.6 1.1 4 1.1 1.5 0 3-.5 4.2-1.2-.1.4-.1.7-.1 1.1 0 1.4.5 2.7 1.5 3.6.6.6 1.4 1.1 2.3 1.3l.9 2.1c.1.2.3.3.4.3s.4-.1.4-.3l.9-2.1c.9-.2 1.6-.7 2.3-1.3 2-1.9 2-5.2 0-7.2zm-.7 6.6c-.6.6-1.3.9-2 1.1-.2 0-.3.1-.3.3l-.6 1.3-.6-1.3-.3-.3c-.8-.2-1.5-.6-2-1.1-.8-.8-1.2-1.8-1.2-2.9 0-1.1.4-2.2 1.2-2.9.7-.9 1.7-1.3 2.8-1.3s2.2.4 2.9 1.2c1.7 1.6 1.7 4.3.1 5.9z"/></svg>