<svg width="26" height="27" viewBox="0 0 26 27" fill="none" xmlns="http://www.w3.org/2000/svg">
<path d="M9.5 26.5L5.5 25L2 22L0 17.5V10.5L2.5 4.5L7 1.5L13.5 0.5L20.5 2.5L23.5 4L25 9L26 15.5L24.5 19.5L23 22.5L19.5 24.5L14.5 26.5H14H11.5H9.5Z" fill="#FF0000"/>
<g clip-path="url(#clip0_1_14)">
<path d="M15.5 25.22C15.3674 25.22 15.2402 25.1673 15.1464 25.0736C15.0527 24.9798 15 24.8526 15 24.72V21C15 20.101 14.885 19.463 14.637 18.995C14.6014 18.9274 14.5817 18.8524 14.5796 18.776C14.5774 18.6996 14.5928 18.6237 14.6246 18.5542C14.6564 18.4846 14.7037 18.4233 14.7629 18.3749C14.822 18.3265 14.8915 18.2923 14.966 18.275C17.93 17.591 20 15.422 20 13C20 11.8 19.507 10.655 18.575 9.688C18.5048 9.61537 18.4582 9.52318 18.4415 9.42358C18.4247 9.32397 18.4385 9.22162 18.481 9.13C18.853 8.328 18.774 7.236 18.333 6.581C17.75 6.809 16.993 7.286 16.501 7.87C16.4352 7.94882 16.3466 8.00529 16.2474 8.03162C16.1482 8.05795 16.0432 8.05284 15.947 8.017C14.0429 7.32894 11.9581 7.32894 10.054 8.017C9.95782 8.05237 9.8531 8.05733 9.75402 8.03121C9.65493 8.0051 9.56625 7.94917 9.5 7.871C9.008 7.287 8.251 6.81 7.667 6.582C7.226 7.237 7.147 8.329 7.519 9.131C7.56159 9.22244 7.5754 9.32465 7.55861 9.42412C7.54183 9.52358 7.49523 9.6156 7.425 9.688C6.493 10.655 5.841 11.802 5.841 13.001C5.841 15.308 7.863 17.385 10.636 18.17C10.7408 18.1998 10.8331 18.263 10.8988 18.35C10.9645 18.437 11 18.543 11 18.652V19.001C11 19.627 10.749 19.98 10.538 20.167C10.086 20.564 9.502 20.504 9.438 20.497H9.428C8.604 20.497 7.984 20.038 7.385 19.594C7.084 19.371 6.779 19.144 6.424 18.956C6.501 19.06 6.577 19.167 6.654 19.274C7.404 20.317 8.253 21.5 9.501 21.5H10.501C10.6336 21.5 10.7608 21.5527 10.8546 21.6464C10.9483 21.7402 11.001 21.8674 11.001 22V24.72C11.001 24.7948 10.9842 24.8687 10.9518 24.9361C10.9194 25.0036 10.8723 25.0629 10.814 25.1097C10.7556 25.1566 10.6875 25.1897 10.6147 25.2067C10.5418 25.2237 10.4661 25.2242 10.393 25.208C4.95 24 1 19.077 1 13.5C1 6.883 6.383 1.5 13 1.5C19.617 1.5 25 6.883 25 13.5C25 19.076 21.05 24 15.608 25.208C15.5725 25.2159 15.5363 25.22 15.5 25.22ZM15.608 18.79C15.772 19.307 16 20.236 16 21V24.078C20.671 22.752 23.5 18.401 23.5 13.5C23.5 7.435 19.065 2 13 2C6.935 2 2 7.435 2 13.5C2 18.401 5.208 23.174 9.879 24.5L10 22.5H9.5C7.74 22.5 6.687 21.035 5.841 19.857C5.362 19.19 4.866 18.5 4.5 18.5C4.36739 18.5 4.24021 18.4473 4.14645 18.3536C4.05268 18.2598 4 18.1326 4 18C4 17.8674 4.05268 17.7402 4.14645 17.6464C4.24021 17.5527 4.36739 17.5 4.5 17.5C6.24 17.5 7.205 18.215 7.98 18.79L7.98169 18.7913C8.51689 19.1877 8.93859 19.5 9.5 19.5C9.556 19.503 9.763 19.518 9.879 19.414C9.974 19.328 9.998 19.157 10 19.022C6.994 18.035 5 15.654 5 13.001C5 11.637 5.512 10.341 6.484 9.235C6.055 7.992 6.32 6.474 7.146 5.647C7.20746 5.58465 7.28439 5.53976 7.36891 5.51692C7.45343 5.49407 7.5425 5.4941 7.627 5.517C8.295 5.694 9.259 6.245 10 7C11.9317 6.37902 14.5683 6.37902 16.5 7C17.241 6.245 17.702 5.694 18.37 5.517C18.4545 5.494 18.5436 5.49391 18.6281 5.51676C18.7127 5.53961 18.7896 5.58456 18.851 5.647C19.678 6.474 19.8146 8.446 19.3856 9.688C20.3606 10.795 21 11.637 21 13C21 15.728 18.723 17.861 15.608 18.79Z" fill="black"/>
<path d="M15.608 18.79C15.772 19.307 16 20.236 16 21V24.078C20.671 22.752 23.5 18.401 23.5 13.5C23.5 7.435 19.065 2 13 2C6.935 2 2 7.435 2 13.5C2 18.401 5.208 23.174 9.879 24.5L10 22.5H9.5C7.74 22.5 6.687 21.035 5.841 19.857C5.362 19.19 4.866 18.5 4.5 18.5C4.36739 18.5 4.24021 18.4473 4.14645 18.3536C4.05268 18.2598 4 18.1326 4 18C4 17.8674 4.05268 17.7402 4.14645 17.6464C4.24021 17.5527 4.36739 17.5 4.5 17.5C6.24 17.5 7.205 18.215 7.98 18.79L7.98169 18.7913C8.51689 19.1877 8.93859 19.5 9.5 19.5C9.556 19.503 9.763 19.518 9.879 19.414C9.974 19.328 9.998 19.157 10 19.022C6.994 18.035 5 15.654 5 13.001C5 11.637 5.512 10.341 6.484 9.235C6.055 7.992 6.32 6.474 7.146 5.647C7.20746 5.58465 7.28439 5.53976 7.36891 5.51692C7.45343 5.49407 7.5425 5.4941 7.627 5.517C8.295 5.694 9.259 6.245 10 7C11.9317 6.37902 14.5683 6.37902 16.5 7C17.241 6.245 17.702 5.694 18.37 5.517C18.4545 5.494 18.5436 5.49391 18.6281 5.51676C18.7127 5.53961 18.7896 5.58456 18.851 5.647C19.678 6.474 19.8146 8.446 19.3856 9.688C20.3606 10.795 21 11.637 21 13C21 15.728 18.723 17.861 15.608 18.79Z" fill="white"/>
</g>
<defs>
<clipPath id="clip0_1_14">
<rect width="24" height="24" fill="white" transform="translate(1 1)"/>
</clipPath>
</defs>
</svg>
