<?xml version="1.0" encoding="UTF-8" standalone="no"?>
<svg
   version="1.0"
   width="512.000000pt"
   height="512.000000pt"
   viewBox="0 0 512.000000 512.000000"
   preserveAspectRatio="xMidYMid meet"
   id="svg78"
   sodipodi:docname="greddiit.svg"
   inkscape:version="1.2.2 (1:1.2.2+202212051551+b0a8486541)"
   xmlns:inkscape="http://www.inkscape.org/namespaces/inkscape"
   xmlns:sodipodi="http://sodipodi.sourceforge.net/DTD/sodipodi-0.dtd"
   xmlns:xlink="http://www.w3.org/1999/xlink"
   xmlns="http://www.w3.org/2000/svg"
   xmlns:svg="http://www.w3.org/2000/svg">
  <defs
     id="defs82">
    <linearGradient
       inkscape:collect="always"
       id="linearGradient1034">
      <stop
         style="stop-color:#0072f5;stop-opacity:1;"
         offset="0"
         id="stop1030" />
      <stop
         style="stop-color:#9e00ff;stop-opacity:1;"
         offset="0.73000002"
         id="stop1032" />
    </linearGradient>
    <linearGradient
       inkscape:collect="always"
       xlink:href="#linearGradient1034"
       id="linearGradient1036"
       x1="5115.332"
       y1="-2.5773072"
       x2="4.6678319"
       y2="5123.5952"
       gradientUnits="userSpaceOnUse" />
  </defs>
  <sodipodi:namedview
     id="namedview80"
     pagecolor="#505050"
     bordercolor="#eeeeee"
     borderopacity="1"
     inkscape:showpageshadow="0"
     inkscape:pageopacity="0"
     inkscape:pagecheckerboard="0"
     inkscape:deskcolor="#505050"
     inkscape:document-units="pt"
     showgrid="false"
     inkscape:zoom="0.7386618"
     inkscape:cx="449.46145"
     inkscape:cy="375.00247"
     inkscape:window-width="960"
     inkscape:window-height="1001"
     inkscape:window-x="960"
     inkscape:window-y="43"
     inkscape:window-maximized="0"
     inkscape:current-layer="g76" />
  <metadata
     id="metadata62">
Created by potrace 1.15, written by Peter Selinger 2001-2017
</metadata>
  <g
     transform="translate(0.000000,512.000000) scale(0.100000,-0.100000)"
     fill="#000000"
     stroke="none"
     id="g76">
    <g
       id="g1028"
       style="fill-opacity:1;fill:url(#linearGradient1036)">
      <path
         d="M 2405.1314,5120 C 1788.0395,5089.0263 1200.7301,4823.367 749.22849,4370.6742 369.20473,3991.8417 135.71051,3545.1053 30.876367,3001.8738 8.2417228,2881.5528 4.6678317,2824.3706 4.6678317,2559.9026 c 0,-264.4679 3.5738911,-321.6502 26.2085353,-441.9712 C 110.69327,1703.3601 267.94448,1343.5884 515.73427,1011.2165 622.951,865.87824 865.9756,622.85364 1011.3138,515.63691 1475.9197,168.96947 1989.3687,-2.5773072 2560,-2.5773072 c 695.7175,0 1318.7658,258.5114572 1810.7715,751.7084372 380.0238,378.83247 614.7093,826.76017 718.3521,1368.80027 22.6347,120.321 26.2086,177.5033 26.2086,441.9712 0,264.468 -3.5739,321.6502 -26.2086,441.9712 -79.8169,414.5714 -237.0681,774.3431 -484.8579,1106.715 -110.7906,150.1034 -352.6239,389.5541 -505.1099,503.9187 C 3601.1936,4981.8095 3034.1362,5150.9737 2405.1314,5120 Z m 1187.7231,-929.2117 c 81.0082,-29.7824 146.5296,-131.0427 146.5296,-225.1551 0,-94.1125 -65.5214,-195.3728 -146.5296,-225.1552 -20.252,-8.3391 -146.5295,-13.1042 -318.0763,-13.1042 h -284.72 l -11.9129,-44.078 c -7.1478,-25.0173 -30.9738,-122.7036 -54.7997,-218.0074 -23.8259,-95.3038 -45.2693,-182.2684 -48.8432,-192.9901 -4.7652,-16.6782 0,-21.4434 21.4434,-21.4434 15.4868,0 88.1559,-13.1042 163.2077,-27.3998 l 135.8078,-27.3998 53.6084,57.1822 c 73.8604,78.6256 196.564,158.4425 314.5024,203.7118 95.3038,35.7389 104.8342,38.1215 283.5287,38.1215 170.3555,0 191.7988,-2.3826 271.6157,-32.165 131.0427,-47.6519 212.0509,-100.0689 318.0764,-206.0944 106.0254,-106.0254 164.3989,-202.5205 209.6682,-351.4326 22.6347,-72.6691 27.3999,-115.5558 27.3999,-226.3465 0,-152.486 -20.2521,-244.2158 -77.4343,-366.9194 -36.9303,-75.0518 -164.399,-245.4072 -192.9902,-256.1289 -11.9129,-4.7652 -19.0607,-42.8867 -23.8259,-135.8079 C 4364.815,1639.03 4255.2157,1417.4488 4019.3389,1192.2936 3660.7585,846.81749 3096.0837,660.97515 2471.844,681.2272 c -564.6748,17.86945 -1047.1501,198.94661 -1374.7568,513.449 -127.46876,122.7036 -195.37269,213.2422 -259.70273,346.6675 -66.71264,138.1904 -88.15598,221.5812 -96.49506,375.2585 -5.95649,117.9384 -8.33908,126.2775 -39.31281,154.8687 -102.45154,91.7298 -192.99012,245.4071 -233.49422,393.128 -32.16502,119.1297 -29.78242,326.4154 5.95649,440.7799 45.26929,148.9121 103.64284,245.4072 209.66828,351.4326 106.02544,106.0255 187.03364,158.4425 318.07635,206.0944 79.8169,29.7824 101.2602,32.165 271.6157,32.165 178.6945,0 188.2249,-2.3826 283.5287,-38.1215 117.9384,-45.2693 240.642,-125.0862 314.5024,-203.7118 l 53.6084,-57.1822 132.2339,26.2085 c 72.6692,14.2956 171.5468,29.7824 220.39,34.5476 l 89.3473,8.3391 101.2602,405.041 c 109.5994,437.206 120.321,463.4145 208.477,509.8751 41.6954,21.4434 71.4778,22.6347 463.4146,23.826 268.0418,0 431.2495,-4.7652 452.6928,-13.1043 z"
         id="path68"
         style="stroke-width:1.1913;fill-opacity:1.0;fill:url(#linearGradient1036)" />
      <path
         d="m 1159.0347,2998.3 c -20.2521,-7.1478 -63.1388,-32.1651 -95.3038,-55.991 -126.27748,-95.3038 -166.78158,-265.6592 -96.49505,-408.6149 32.16502,-65.5213 69.09525,-103.6428 173.92935,-179.8858 76.243,-54.7997 103.6429,-114.3646 97.6864,-210.8596 -2.3826,-42.8867 -4.7652,-126.2775 -5.9565,-185.8424 -1.1913,-101.2602 1.1913,-111.9819 42.8867,-196.564 129.8514,-263.2766 452.6929,-463.4145 903.0031,-559.9096 108.4081,-23.8259 159.6338,-27.3998 381.2151,-27.3998 221.5813,0 272.807,3.5739 381.2151,27.3998 449.1189,96.4951 771.9604,295.4417 901.8118,556.3357 42.8867,88.156 45.2693,98.8777 44.078,200.1379 -1.1913,59.5649 -3.5739,142.9557 -5.9565,185.8424 -5.9565,96.495 21.4434,156.0599 97.6864,210.8596 104.8341,76.243 141.7643,114.3645 173.9294,179.8858 81.0082,164.399 9.5303,368.1108 -157.2513,449.119 -67.9039,32.165 -195.3727,38.1215 -264.4679,11.913 -75.0517,-28.5912 -151.2947,-101.2603 -196.564,-188.225 -27.3998,-51.2257 -53.6084,-81.0082 -91.7299,-104.8341 -77.4343,-50.0345 -132.234,-53.6084 -251.3637,-16.6782 -426.4843,131.0427 -836.2905,131.0427 -1262.7748,0 -119.1297,-36.9302 -173.9294,-33.3563 -251.3637,16.6782 -36.9302,22.6346 -64.3301,53.6084 -90.5386,103.6428 -75.0517,139.3818 -178.6945,207.2857 -313.3111,206.0944 -42.8867,-1.1913 -94.1125,-7.1478 -114.3645,-13.1042 z"
         id="path70"
         style="stroke-width:1.1913;fill-opacity:1.0;fill:url(#linearGradient1036)" />
    </g>
  </g>
</svg>
