<svg width="800" height="800" viewBox="0 0 800 800" fill="none" xmlns="http://www.w3.org/2000/svg">
<path d="M143 683L129.5 553.5L138 402.5L143 296L149 260.5L129.5 185L167.5 125.5H260L316 185L302.5 276.5L367 289.5H453.5L534 260.5L632.5 305.5L686.5 413L695 584.5L680.5 677L612 695.5H520.5L502.5 614V490.5L470.5 476L453.5 677L367 695.5H302.5L143 683Z" fill="#FF0000"/>
<path fill-rule="evenodd" clip-rule="evenodd" d="M48 54.5L29.5 153.5L37 246L29.5 359V490.5L22.5 584.5L37 704L56.5 762.5L114 795.5H196.5H289L377 785.5L478 795.5L592.5 785.5L726.5 799L774 724.5L780 617.5L774 490.5L780 380L774 289.5V216.5L780 125.5L774 43.5L665.5 24H561L393 17L229.5 24L123.5 11L48 54.5ZM104 260.5V99.5L129.5 85L360 99.5H592.5L709.5 125.5V260.5L720.5 402.5V553.5V683L650 717.5L463.5 724.5L302.5 717.5L196.5 724.5L114 704L104 433.5V260.5Z" fill="#FF0000"/>
<path d="M143 683L129.5 553.5L138 402.5L143 296L149 260.5L129.5 185L167.5 125.5H260L316 185L302.5 276.5L367 289.5H453.5L534 260.5L632.5 305.5L686.5 413L695 584.5L680.5 677L612 695.5H520.5L502.5 614V490.5L470.5 476L453.5 677L367 695.5H302.5L143 683Z" stroke="black"/>
<path fill-rule="evenodd" clip-rule="evenodd" d="M48 54.5L29.5 153.5L37 246L29.5 359V490.5L22.5 584.5L37 704L56.5 762.5L114 795.5H196.5H289L377 785.5L478 795.5L592.5 785.5L726.5 799L774 724.5L780 617.5L774 490.5L780 380L774 289.5V216.5L780 125.5L774 43.5L665.5 24H561L393 17L229.5 24L123.5 11L48 54.5ZM104 260.5V99.5L129.5 85L360 99.5H592.5L709.5 125.5V260.5L720.5 402.5V553.5V683L650 717.5L463.5 724.5L302.5 717.5L196.5 724.5L114 704L104 433.5V260.5Z" stroke="black"/>
<path fill-rule="evenodd" clip-rule="evenodd" d="M100.167 70.6667C92.0091 70.6667 106.18 64.37 100.167 70.6667C94.1288 76.989 88.1667 85.9092 88.1667 95.1667L95.3333 701.005C95.3333 710.261 98.8528 718.996 104.891 725.319C110.903 731.614 118.89 735 127.049 735L710.438 725.32C718.597 725.32 704.43 731.614 710.438 725.32L734.547 711C740.586 704.676 734.547 720.255 734.547 711L720 113.328C720 104.073 716.48 95.34 710.441 89.0166L710.438 89.0142C704.429 82.7201 718.596 89.0142 710.438 89.0142L100.167 70.6667ZM80.7842 65.9945C92.9178 53.2892 109.543 46 127.049 46L710.438 59.1667C727.943 59.1667 717.167 57.1667 734.548 65.9965C746.655 78.6741 753.333 95.7123 753.333 113.328V701.005C753.333 718.62 746.655 735.661 734.547 748.34C722.414 761.048 705.786 768.333 688.284 768.333H127.049C109.544 768.333 92.9185 761.046 80.784 748.34C68.6757 735.66 62 718.619 62 701.005V113.328C62 95.7129 68.6757 78.6734 80.7842 65.9945ZM172.075 161.586C185.661 147.361 204.254 139.218 223.813 139.218H225.555C225.596 139.218 225.636 139.218 225.676 139.218C235.294 139.288 244.783 141.341 253.596 145.239C262.408 149.136 270.348 154.789 276.986 161.837C283.623 168.884 288.832 177.189 292.349 186.261C295.86 195.313 297.629 204.975 297.571 214.704V216.476C297.571 216.603 297.57 216.731 297.567 216.858C297.343 226.608 295.288 236.236 291.499 245.196C287.709 254.158 282.249 262.299 275.396 269.134C268.542 275.971 260.426 281.368 251.491 284.978C242.622 288.561 233.144 290.303 223.598 290.086C204.118 290.027 185.611 281.891 172.075 267.718C158.515 253.519 151.023 234.417 151.023 214.652C151.023 194.887 158.515 175.785 172.075 161.586ZM196.181 184.608C188.691 192.451 184.357 203.245 184.357 214.652C184.357 226.059 188.691 236.853 196.181 244.696C203.647 252.513 213.603 256.753 223.813 256.753C223.956 256.753 224.099 256.755 224.242 256.759C229.265 256.888 234.278 255.981 239.004 254.072L239.005 254.071C243.734 252.161 248.107 249.273 251.857 245.534C255.607 241.793 258.658 237.273 260.797 232.213C262.915 227.206 264.09 221.788 264.238 216.27V214.652C264.238 214.615 264.238 214.578 264.238 214.541C264.275 208.962 263.262 203.445 261.271 198.313C259.281 193.182 256.364 188.559 252.722 184.692L252.721 184.691C249.08 180.825 244.788 177.791 240.115 175.724C235.459 173.665 230.492 172.595 225.489 172.551H223.813C213.603 172.551 203.646 176.791 196.181 184.608ZM522.283 301.336C555.039 301.429 588.851 312.061 614.587 337.215C640.607 362.647 656.568 401.151 656.568 453.371L656.568 453.436L655.795 650.408C655.759 659.587 648.307 667.009 639.128 667.009H542.363C533.158 667.009 525.696 659.547 525.696 650.342V476.673C525.696 453.324 520.441 439.893 514.303 432.538C508.552 425.648 500.29 422.011 488.756 422.011H485.954C473.993 423.382 462.799 429.557 454.817 439.532C446.649 449.739 442.563 463.054 443.634 476.574C443.668 477.011 443.686 477.45 443.686 477.889V650.342C443.686 659.547 436.224 667.009 427.019 667.009H330.255C321.05 667.009 313.588 659.547 313.588 650.342V326.108C313.588 316.903 321.05 309.441 330.255 309.441H421.212C430.417 309.441 437.879 316.903 437.879 326.108V329.431C444.242 324.227 451.1 319.643 458.373 315.759C478.076 305.241 500.107 300.253 522.283 301.336ZM520.977 334.646C504.775 333.796 488.607 337.405 474.072 345.165C459.534 352.926 447.094 364.598 438.072 379.092C435.03 383.98 429.68 386.951 423.923 386.951H421.212C412.007 386.951 404.545 379.489 404.545 370.285L410.352 334.646L330.255 337.215L346.921 633.676H410.352L421.212 477.889C419.677 456.323 430.205 427.96 443.634 411.18C457.226 394.194 461.994 390.854 483.456 388.757C483.995 388.704 484.536 388.678 485.077 388.678H488.756C507.993 388.678 526.534 395.172 539.894 411.18C552.867 426.723 559.03 448.957 559.03 476.673V633.676H622.527L623.235 453.371C623.235 453.36 623.235 453.349 623.235 453.337C623.228 408.104 609.582 378.934 591.288 361.053C572.819 343.002 547.79 334.669 521.85 334.669C521.559 334.669 521.268 334.661 520.977 334.646ZM158.765 326.108C158.765 316.903 166.227 309.441 175.431 309.441H272.196C281.4 309.441 288.862 316.903 288.862 326.108V650.342C288.862 659.547 281.4 667.009 272.196 667.009H175.431C166.227 667.009 158.765 659.547 158.765 650.342V326.108ZM184.357 342.775L192.098 647L255.529 633.676L260.797 334.669L184.357 342.775Z" fill="black"/>
<path d="M474.072 345.165C488.607 337.405 504.775 333.796 520.977 334.646C521.268 334.661 521.559 334.669 521.85 334.669C547.79 334.669 572.819 343.002 591.288 361.053C609.582 378.934 623.228 408.104 623.235 453.337V453.371L622.527 633.676H559.03V476.673C559.03 448.957 552.867 426.723 539.894 411.18C526.534 395.172 507.993 388.678 488.756 388.678H485.077C484.536 388.678 483.995 388.704 483.456 388.757C461.994 390.854 457.226 394.194 443.634 411.18C430.205 427.96 419.677 456.323 421.212 477.889L410.352 633.676H346.921L330.255 337.215L410.352 334.646L404.545 370.285C404.545 379.489 412.007 386.951 421.212 386.951H423.923C429.68 386.951 435.03 383.98 438.072 379.092C447.094 364.598 459.534 352.926 474.072 345.165Z" fill="white"/>
<path d="M192.098 647L184.357 342.775L260.797 334.669L255.529 633.676L192.098 647Z" fill="white"/>
<path d="M184.357 214.652C184.357 203.245 188.691 192.451 196.181 184.608C203.646 176.791 213.603 172.551 223.813 172.551H225.489C230.492 172.595 235.459 173.665 240.115 175.724C244.788 177.791 249.08 180.825 252.721 184.691L252.722 184.692C256.364 188.559 259.281 193.182 261.271 198.313C263.262 203.445 264.275 208.962 264.238 214.541C264.238 214.578 264.238 214.615 264.238 214.652V216.27C264.09 221.788 262.915 227.206 260.797 232.213C258.658 237.273 255.607 241.793 251.857 245.534C248.107 249.273 243.734 252.161 239.005 254.071L239.004 254.072C234.278 255.981 229.265 256.888 224.242 256.759C224.099 256.755 223.956 256.753 223.813 256.753C213.603 256.753 203.647 252.513 196.181 244.696C188.691 236.853 184.357 226.059 184.357 214.652Z" fill="white"/>
</svg>
