<svg width="1261" height="928" viewBox="0 0 1261 928" fill="none" xmlns="http://www.w3.org/2000/svg">
<path d="M0 340L69.5 75L374.5 0H875.5L1221 29V340L1261 656.5L1221 852.5L985 927.5H426.5L29 852.5L0 605V340Z" fill="#FF0000"/>
<path d="M127.5 718.242V171.724L428.035 416.826L127.5 718.242ZM684.682 570.399L684.802 570.3L684.92 570.199L784.776 484.972L1086.16 801H194.682L510.643 484.212L617.072 571.024L617.236 571.158L617.402 571.29C627.016 578.883 638.949 582.94 651.2 582.778C663.451 582.616 675.272 578.245 684.682 570.399ZM1070.97 102L649.771 460.92L209.747 102H1070.97ZM1154.5 170.084V719.082L865.772 416.095L1154.5 170.084Z" fill="#FFFBFB" stroke="black" stroke-width="54"/>
</svg>
