<?xml version="1.0"?>
<svg width="700" height="550" xmlns="http://www.w3.org/2000/svg" xmlns:svg="http://www.w3.org/2000/svg" version="1.1">
 <g class="layer">
  <title>Layer 1</title>
  <g id="svg_1">
   <path d="m578.84,340.11c-4.28,0 -8.34,0.75 -12.29,1.85l-44.98,-67.46l44.98,-67.46c3.95,1.07 8.01,1.83 12.29,1.83c25.94,0 47.06,-21.11 47.06,-47.06c0,-25.94 -21.11,-47.06 -47.06,-47.06c-12.99,0 -24.76,5.28 -33.26,13.82l-145.69,-72.86c0.29,-2.16 0.66,-4.32 0.66,-6.57c0,-25.94 -21.11,-47.06 -47.06,-47.06s-47.06,21.11 -47.06,47.06c0,2.25 0.36,4.41 0.66,6.57l-145.69,72.86c-8.52,-8.53 -20.29,-13.82 -33.26,-13.82c-25.94,0 -47.06,21.11 -47.06,47.06c0,25.94 21.11,47.06 47.06,47.06c4.28,0 8.35,-0.76 12.29,-1.83l44.97,67.46l-44.97,67.46c-3.94,-1.1 -8.01,-1.85 -12.29,-1.85c-25.94,0 -47.06,21.11 -47.06,47.06c0,25.94 21.11,47.06 47.06,47.06c12.98,0 24.73,-5.28 33.25,-13.8l145.7,72.86c-0.32,2.16 -0.66,4.32 -0.66,6.57c0,25.94 21.11,47.06 47.06,47.06s47.06,-21.11 47.06,-47.06c0,-2.25 -0.37,-4.42 -0.67,-6.57l145.7,-72.86c8.52,8.52 20.29,13.8 33.26,13.8c25.94,0 47.04,-21.11 47.04,-47.06s-21.1,-47.06 -47.04,-47.06zm-43.4,8.75l-47.58,-23.79l15.87,-23.78l31.71,47.56zm-169.65,105.78c-3.94,-1.1 -8.01,-1.85 -12.29,-1.85s-8.34,0.75 -12.28,1.83l-78.69,-118.01l57.7,-28.86c8.52,8.52 20.29,13.8 33.26,13.8s24.76,-5.28 33.28,-13.82l57.7,28.86l-78.69,118.04zm-24.57,-360.26c3.94,1.07 8.01,1.83 12.28,1.83s8.34,-0.76 12.29,-1.83l78.68,118.01l-57.7,28.86c-8.52,-8.52 -20.29,-13.8 -33.26,-13.8s-24.73,5.28 -33.25,13.8l-57.7,-28.86l78.68,-118.01zm29.62,180.12c0,9.55 -7.78,17.33 -17.34,17.33s-17.33,-7.78 -17.33,-17.33s7.78,-17.34 17.33,-17.34s17.34,7.78 17.34,17.34zm-63.73,-6.6c-0.31,2.18 -0.67,4.33 -0.67,6.6c0,2.24 0.36,4.39 0.67,6.57l-61.2,30.59l-24.78,-37.16l24.79,-37.19l61.19,30.59zm92.77,13.17c0.31,-2.18 0.66,-4.33 0.66,-6.57c0,-2.27 -0.36,-4.42 -0.66,-6.6l61.19,-30.59l24.79,37.19l-24.78,37.16l-61.2,-30.59zm87.96,-57.15l47.6,-23.8l-31.72,47.59l-15.88,-23.79zm90.99,-79.44c9.56,0 17.34,7.78 17.34,17.34c0,9.55 -7.78,17.33 -17.34,17.33c-9.55,0 -17.33,-7.78 -17.33,-17.33c0,-9.56 7.78,-17.34 17.33,-17.34zm-46.38,23.92l-61.22,30.6l-74.36,-111.55l135.58,67.79c-0.31,2.18 -0.66,4.33 -0.66,6.57s0.36,4.41 0.66,6.57l0,0.01zm-178.95,-136.57c9.55,0 17.33,7.77 17.33,17.33c0,9.56 -7.78,17.34 -17.33,17.34s-17.34,-7.78 -17.34,-17.34c0,-9.56 7.78,-17.33 17.34,-17.33zm-43.38,55.63l-74.37,111.55l-61.22,-30.6c0.32,-2.16 0.67,-4.33 0.67,-6.57s-0.36,-4.41 -0.67,-6.57l135.59,-67.8zm-199.3,74.37c0,-9.56 7.77,-17.33 17.33,-17.33c9.56,0 17.34,7.77 17.34,17.33c0,9.56 -7.78,17.33 -17.33,17.33c-9.58,0.01 -17.34,-7.77 -17.34,-17.33zm60.73,38.31l47.58,23.79l-15.85,23.79l-31.72,-47.58zm47.58,124.94l-47.58,23.79l31.72,-47.58l15.85,23.79zm-90.98,79.43c-9.56,0 -17.33,-7.78 -17.33,-17.33s7.77,-17.34 17.33,-17.34c9.56,0 17.34,7.78 17.34,17.34s-7.78,17.33 -17.34,17.33zm46.39,-23.9l61.19,-30.6l74.37,111.55l-135.56,-67.79c0.32,-2.18 0.66,-4.34 0.66,-6.58s-0.34,-4.42 -0.66,-6.57zm178.95,136.58c-9.56,0 -17.34,-7.78 -17.34,-17.34c0,-9.55 7.78,-17.33 17.34,-17.33s17.33,7.77 17.33,17.33c0,9.56 -7.78,17.34 -17.33,17.34zm43.39,-55.64l74.37,-111.55l61.19,30.59c-0.31,2.16 -0.66,4.33 -0.66,6.57s0.36,4.42 0.66,6.6l-135.56,67.79zm181.94,-57.04c-9.55,0 -17.33,-7.78 -17.33,-17.34s7.77,-17.33 17.33,-17.33c9.56,0 17.33,7.78 17.33,17.33c0.01,9.56 -7.77,17.34 -17.33,17.34z" id="svg_2"/>
  </g>
 </g>
</svg>