<svg width="1503" height="1503" viewBox="0 0 1503 1503" fill="none" xmlns="http://www.w3.org/2000/svg">
<path d="M751.5 0L811.164 145.716L898.11 14.4399L928.201 168.996L1039.09 57.2045L1038.45 214.661L1169.01 126.651L1137.66 280.957L1282.89 220.109L1222.04 365.335L1376.35 333.989L1288.34 464.554L1445.8 463.913L1334 574.799L1488.56 604.89L1357.28 691.836L1503 751.5L1357.28 811.164L1488.56 898.11L1334 928.201L1445.8 1039.09L1288.34 1038.45L1376.35 1169.01L1222.04 1137.66L1282.89 1282.89L1137.66 1222.04L1169.01 1376.35L1038.45 1288.34L1039.09 1445.8L928.201 1334L898.11 1488.56L811.164 1357.28L751.5 1503L691.836 1357.28L604.89 1488.56L574.799 1334L463.913 1445.8L464.554 1288.34L333.989 1376.35L365.335 1222.04L220.109 1282.89L280.957 1137.66L126.651 1169.01L214.661 1038.45L57.2045 1039.09L168.996 928.201L14.4399 898.11L145.716 811.164L0 751.5L145.716 691.836L14.4399 604.89L168.996 574.799L57.2045 463.913L214.661 464.554L126.651 333.989L280.957 365.335L220.109 220.109L365.335 280.957L333.989 126.651L464.554 214.661L463.913 57.2045L574.799 168.996L604.89 14.4399L691.836 145.716L751.5 0Z" fill="black"/>
</svg>
